<?xml version="1.0" encoding="UTF-8" standalone="no"?>
<svg
   xmlns:dc="http://purl.org/dc/elements/1.1/"
   xmlns:cc="http://creativecommons.org/ns#"
   xmlns:rdf="http://www.w3.org/1999/02/22-rdf-syntax-ns#"
   xmlns:svg="http://www.w3.org/2000/svg"
   xmlns="http://www.w3.org/2000/svg"
   viewBox="0 0 646.48157 255.18875"
   height="255.18875"
   width="646.48157"
   xml:space="preserve"
   id="svg2"
   version="1.1"><metadata
     id="metadata8"><rdf:RDF><cc:Work
         rdf:about=""><dc:format>image/svg+xml</dc:format><dc:type
           rdf:resource="http://purl.org/dc/dcmitype/StillImage" /></cc:Work></rdf:RDF></metadata><defs
     id="defs6" /><g
     transform="matrix(1.3333333,0,0,-1.3333333,315.10561,44.815039)"
     id="g10"><g
       id="g12"><g
         id="g14"><g
           id="g16"><path
             id="path18"
             style="fill:#ffffff;fill-opacity:1;fill-rule:nonzero;stroke:#000000;stroke-width:0.3985;stroke-linecap:butt;stroke-linejoin:miter;stroke-miterlimit:10;stroke-dasharray:none;stroke-opacity:1"
             d="M -236.12996,-157.58104 V 33.41203 h 484.46268 v -190.99307 z" /></g></g><g
         id="g20"><g
           id="g22"><g
             id="g24"><path
               id="path26"
               style="fill:#fbcce8;fill-opacity:1;fill-rule:nonzero;stroke:#000000;stroke-width:0.79701;stroke-linecap:butt;stroke-linejoin:miter;stroke-miterlimit:10;stroke-dasharray:none;stroke-opacity:1"
               d="m 21.26453,9.96277 h -42.52906 c -2.01165,0 -3.64239,-1.63074 -3.64239,-3.6424 V -6.32037 c 0,-2.01166 1.63074,-3.6424 3.64239,-3.6424 h 42.52906 c 2.01165,0 3.64239,1.63074 3.64239,3.6424 V 6.32037 c 0,2.01166 -1.63074,3.6424 -3.64239,3.6424 z" /></g><g
             transform="translate(-7.472,-3.083)"
             id="g28"><g
               id="g30"><g
                 transform="translate(-229.354,-155.195)"
                 id="g32"><text
                   id="text36"
                   style="font-variant:normal;font-weight:normal;font-size:9.96259975px;font-family:Inconsolatazi4;-inkscape-font-specification:Inconsolatazi4-Regular;writing-mode:lr-tb;fill:#000000;fill-opacity:1;fill-rule:nonzero;stroke:none"
                   transform="matrix(1,0,0,-1,229.354,155.195)"><tspan
                     id="tspan34"
                     y="0"
                     x="0 4.9812999 9.9625998">CID</tspan></text>
<g
                   transform="translate(229.354,155.195)"
                   id="g38" /></g></g><g
               transform="translate(7.472,3.083)"
               id="g40" /></g></g><g
           id="g42"><g
             id="g44"><path
               id="path46"
               style="fill:#ccffcc;fill-opacity:1;fill-rule:nonzero;stroke:#000000;stroke-width:0.79701;stroke-linecap:butt;stroke-linejoin:miter;stroke-miterlimit:10;stroke-dasharray:none;stroke-opacity:1"
               d="m -59.23462,-40.64807 h -54.15158 c -2.01166,0 -3.6424,-1.63074 -3.6424,-3.6424 v -12.64074 c 0,-2.01168 1.63074,-3.6424 3.6424,-3.6424 h 54.15158 c 2.01166,0 3.6424,1.63072 3.6424,3.6424 v 12.64074 c 0,2.01166 -1.63074,3.6424 -3.6424,3.6424 z" /></g><g
             transform="translate(-113.706,-53.833)"
             id="g48"><g
               id="g50"><g
                 transform="translate(-123.12,-104.445)"
                 id="g52"><text
                   id="text56"
                   style="font-variant:normal;font-weight:normal;font-size:9.96259975px;font-family:Inconsolatazi4;-inkscape-font-specification:Inconsolatazi4-Regular;writing-mode:lr-tb;fill:#000000;fill-opacity:1;fill-rule:nonzero;stroke:none"
                   transform="matrix(1,0,0,-1,123.12,104.445)"><tspan
                     id="tspan54"
                     y="0"
                     x="0 4.9812999 9.9625998 14.9439 19.9252 24.9065 29.8878 34.869099 39.850399 44.831699 49.813">cid-version</tspan></text>
<g
                   transform="translate(123.12,104.445)"
                   id="g58" /></g></g><g
               transform="translate(113.706,53.833)"
               id="g60" /></g></g><g
           id="g62"><g
             id="g64"><path
               id="path66"
               style="fill:#ccffcc;fill-opacity:1;fill-rule:nonzero;stroke:#000000;stroke-width:0.79701;stroke-linecap:butt;stroke-linejoin:miter;stroke-miterlimit:10;stroke-dasharray:none;stroke-opacity:1"
               d="m 108.40482,-40.64807 h -49.1702 c -2.01166,0 -3.6424,-1.63074 -3.6424,-3.6424 v -12.64074 c 0,-2.01168 1.63074,-3.6424 3.6424,-3.6424 h 49.1702 c 2.01165,0 3.64239,1.63072 3.64239,3.6424 v 12.64074 c 0,2.01166 -1.63074,3.6424 -3.64239,3.6424 z" /></g><g
             transform="translate(58.912,-53.833)"
             id="g68"><g
               id="g70"><g
                 transform="translate(-295.738,-104.445)"
                 id="g72"><text
                   id="text76"
                   style="font-variant:normal;font-weight:normal;font-size:9.96259975px;font-family:Inconsolatazi4;-inkscape-font-specification:Inconsolatazi4-Regular;writing-mode:lr-tb;fill:#000000;fill-opacity:1;fill-rule:nonzero;stroke:none"
                   transform="matrix(1,0,0,-1,295.738,104.445)"><tspan
                     id="tspan74"
                     y="0"
                     x="0 4.9812999 9.9625998 14.9439 19.9252 24.9065 29.8878 34.869099 39.850399 44.831699">multicodec</tspan></text>
<g
                   transform="translate(295.738,104.445)"
                   id="g78" /></g></g><g
               transform="translate(-58.912,53.833)"
               id="g80" /></g></g><g
           id="g82"><g
             id="g84"><path
               id="path86"
               style="fill:#ccffcc;fill-opacity:1;fill-rule:nonzero;stroke:#000000;stroke-width:0.79701;stroke-linecap:butt;stroke-linejoin:miter;stroke-miterlimit:10;stroke-dasharray:none;stroke-opacity:1"
               d="m -151.35631,-40.64807 h -44.18879 c -2.01168,0 -3.6424,-1.63074 -3.6424,-3.6424 v -12.64074 c 0,-2.01168 1.63072,-3.6424 3.6424,-3.6424 h 44.18879 c 2.01167,0 3.6424,1.63072 3.6424,3.6424 v 12.64074 c 0,2.01166 -1.63073,3.6424 -3.6424,3.6424 z" /></g><g
             transform="translate(-195.864,-53.833)"
             id="g88"><g
               id="g90"><g
                 transform="translate(-40.962,-104.445)"
                 id="g92"><text
                   id="text96"
                   style="font-variant:normal;font-weight:normal;font-size:9.96259975px;font-family:Inconsolatazi4;-inkscape-font-specification:Inconsolatazi4-Regular;writing-mode:lr-tb;fill:#000000;fill-opacity:1;fill-rule:nonzero;stroke:none"
                   transform="matrix(1,0,0,-1,40.962,104.445)"><tspan
                     id="tspan94"
                     y="0"
                     x="0 4.9812999 9.9625998 14.9439 19.9252 24.9065 29.8878 34.869099 39.850399">multibase</tspan></text>
<g
                   transform="translate(40.962,104.445)"
                   id="g98" /></g></g><g
               transform="translate(195.864,53.833)"
               id="g100" /></g></g><g
           id="g102"><g
             id="g104"><path
               id="path106"
               style="fill:#ccffcc;fill-opacity:1;fill-rule:nonzero;stroke:#000000;stroke-width:0.79701;stroke-linecap:butt;stroke-linejoin:miter;stroke-miterlimit:10;stroke-dasharray:none;stroke-opacity:1"
               d="m 190.56372,-40.64807 h -44.1888 c -2.01167,0 -3.64239,-1.63074 -3.64239,-3.6424 v -12.64074 c 0,-2.01168 1.63072,-3.6424 3.64239,-3.6424 h 44.1888 c 2.01168,0 3.6424,1.63072 3.6424,3.6424 v 12.64074 c 0,2.01166 -1.63072,3.6424 -3.6424,3.6424 z" /></g><g
             transform="translate(146.051,-53.833)"
             id="g108"><g
               id="g110"><g
                 transform="translate(-382.877,-104.445)"
                 id="g112"><text
                   id="text116"
                   style="font-variant:normal;font-weight:normal;font-size:9.96259975px;font-family:Inconsolatazi4;-inkscape-font-specification:Inconsolatazi4-Regular;writing-mode:lr-tb;fill:#000000;fill-opacity:1;fill-rule:nonzero;stroke:none"
                   transform="matrix(1,0,0,-1,382.877,104.445)"><tspan
                     id="tspan114"
                     y="0"
                     x="0 4.9812999 9.9625998 14.9439 19.9252 24.9065 29.8878 34.869099 39.850399">multihash</tspan></text>
<g
                   transform="translate(382.877,104.445)"
                   id="g118" /></g></g><g
               transform="translate(-146.051,53.833)"
               id="g120" /></g></g><g
           id="g122"><g
             id="g124"><path
               id="path126"
               style="fill:#cceffc;fill-opacity:1;fill-rule:nonzero;stroke:#000000;stroke-width:0.79701;stroke-linecap:butt;stroke-linejoin:miter;stroke-miterlimit:10;stroke-dasharray:none;stroke-opacity:1"
               d="m -141.39354,-71.33339 h -64.11433 c -2.01168,0 -3.6424,-1.63074 -3.6424,-3.64239 v -12.64075 c 0,-2.01166 1.63072,-3.6424 3.6424,-3.6424 h 64.11433 c 2.01167,0 3.6424,1.63074 3.6424,3.6424 v 12.64075 c 0,2.01165 -1.63073,3.64239 -3.6424,3.64239 z" /></g><g
             transform="translate(-205.827,-83.716)"
             id="g128"><g
               id="g130"><g
                 transform="translate(-30.999,-74.562)"
                 id="g132"><text
                   id="text136"
                   style="font-variant:normal;font-weight:normal;font-size:9.96259975px;font-family:Inconsolatazi4;-inkscape-font-specification:Inconsolatazi4-Regular;writing-mode:lr-tb;fill:#000000;fill-opacity:1;fill-rule:nonzero;stroke:none"
                   transform="matrix(1,0,0,-1,30.999,74.562)"><tspan
                     id="tspan134"
                     y="0"
                     x="0 4.9812999 9.9625998 14.9439 19.9252 24.9065 29.8878 34.869099 39.850399 44.831699 49.813 54.7943 59.7756">base-encoding</tspan></text>
<g
                   transform="translate(30.999,74.562)"
                   id="g138" /></g></g><g
               transform="translate(205.827,83.716)"
               id="g140" /></g></g><g
           id="g142"><g
             id="g144"><path
               id="path146"
               style="fill:#ccccff;fill-opacity:1;fill-rule:nonzero;stroke:#000000;stroke-width:0.79701;stroke-linecap:butt;stroke-linejoin:miter;stroke-miterlimit:10;stroke-dasharray:none;stroke-opacity:1"
               d="m -143.88423,-102.0187 h -59.13295 c -2.01167,0 -3.6424,-1.63074 -3.6424,-3.6424 v -12.64075 c 0,-2.01165 1.63073,-3.64239 3.6424,-3.64239 h 59.13295 c 2.01167,0 3.64239,1.63074 3.64239,3.64239 v 12.64075 c 0,2.01166 -1.63072,3.6424 -3.64239,3.6424 z" /></g><g
             transform="translate(-203.336,-115.203)"
             id="g148"><g
               id="g150"><g
                 transform="translate(-33.49,-43.075)"
                 id="g152"><text
                   id="text156"
                   style="font-variant:normal;font-weight:normal;font-size:9.96259975px;font-family:Inconsolatazi4;-inkscape-font-specification:Inconsolatazi4-Regular;writing-mode:lr-tb;fill:#000000;fill-opacity:1;fill-rule:nonzero;stroke:none"
                   transform="matrix(1,0,0,-1,33.49,43.075)"><tspan
                     id="tspan154"
                     y="0"
                     x="0 4.9812999 9.9625998 14.9439 19.9252 24.9065 29.8878 34.869099 39.850399 44.831699 49.813 54.7943">encoded-data</tspan></text>
<g
                   transform="translate(33.49,43.075)"
                   id="g158" /></g></g><g
               transform="translate(203.336,115.203)"
               id="g160" /></g></g><g
           id="g162"><g
             id="g164"><path
               id="path166"
               style="fill:#cceffc;fill-opacity:1;fill-rule:nonzero;stroke:#000000;stroke-width:0.79701;stroke-linecap:butt;stroke-linejoin:miter;stroke-miterlimit:10;stroke-dasharray:none;stroke-opacity:1"
               d="m -65.04588,-71.33339 h -42.52906 c -2.01166,0 -3.64239,-1.63074 -3.64239,-3.64239 v -12.64075 c 0,-2.01166 1.63073,-3.6424 3.64239,-3.6424 h 42.52906 c 2.01165,0 3.64239,1.63074 3.64239,3.6424 v 12.64075 c 0,2.01165 -1.63074,3.64239 -3.64239,3.64239 z" /></g><g
             transform="translate(-101.253,-84.518)"
             id="g168"><g
               id="g170"><g
                 transform="translate(-135.573,-73.76)"
                 id="g172"><text
                   id="text176"
                   style="font-variant:normal;font-weight:normal;font-size:9.96259975px;font-family:Inconsolatazi4;-inkscape-font-specification:Inconsolatazi4-Regular;writing-mode:lr-tb;fill:#000000;fill-opacity:1;fill-rule:nonzero;stroke:none"
                   transform="matrix(1,0,0,-1,135.573,73.76)"><tspan
                     id="tspan174"
                     y="0"
                     x="0 4.9812999 9.9625998 14.9439 19.9252 24.9065">varint</tspan></text>
<g
                   transform="translate(135.573,73.76)"
                   id="g178" /></g></g><g
               transform="translate(101.253,84.518)"
               id="g180" /></g></g><g
           id="g182"><g
             id="g184"><path
               id="path186"
               style="fill:#cceffc;fill-opacity:1;fill-rule:nonzero;stroke:#000000;stroke-width:0.79701;stroke-linecap:butt;stroke-linejoin:miter;stroke-miterlimit:10;stroke-dasharray:none;stroke-opacity:1"
               d="M 105.08424,-71.33339 H 62.55519 c -2.01166,0 -3.64239,-1.63074 -3.64239,-3.64239 v -12.64075 c 0,-2.01166 1.63073,-3.6424 3.64239,-3.6424 h 42.52905 c 2.01166,0 3.6424,1.63074 3.6424,3.6424 v 12.64075 c 0,2.01165 -1.63074,3.64239 -3.6424,3.64239 z" /></g><g
             transform="translate(71.366,-84.518)"
             id="g188"><g
               id="g190"><g
                 transform="translate(-308.192,-73.76)"
                 id="g192"><text
                   id="text196"
                   style="font-variant:normal;font-weight:normal;font-size:9.96259975px;font-family:Inconsolatazi4;-inkscape-font-specification:Inconsolatazi4-Regular;writing-mode:lr-tb;fill:#000000;fill-opacity:1;fill-rule:nonzero;stroke:none"
                   transform="matrix(1,0,0,-1,308.192,73.76)"><tspan
                     id="tspan194"
                     y="0"
                     x="0 4.9812999 9.9625998 14.9439 19.9252">codec</tspan></text>
<g
                   transform="translate(308.192,73.76)"
                   id="g198" /></g></g><g
               transform="translate(-71.366,84.518)"
               id="g200" /></g></g><g
           id="g202"><g
             id="g204"><path
               id="path206"
               style="fill:#ccccff;fill-opacity:1;fill-rule:nonzero;stroke:#000000;stroke-width:0.79701;stroke-linecap:butt;stroke-linejoin:miter;stroke-miterlimit:10;stroke-dasharray:none;stroke-opacity:1"
               d="M 113.3862,-102.0187 H 54.25323 c -2.01165,0 -3.64239,-1.63074 -3.64239,-3.6424 v -12.64075 c 0,-2.01165 1.63074,-3.64239 3.64239,-3.64239 h 59.13297 c 2.01166,0 3.6424,1.63074 3.6424,3.64239 v 12.64075 c 0,2.01166 -1.63074,3.6424 -3.6424,3.6424 z" /></g><g
             transform="translate(53.931,-115.203)"
             id="g208"><g
               id="g210"><g
                 transform="translate(-290.757,-43.075)"
                 id="g212"><text
                   id="text216"
                   style="font-variant:normal;font-weight:normal;font-size:9.96259975px;font-family:Inconsolatazi4;-inkscape-font-specification:Inconsolatazi4-Regular;writing-mode:lr-tb;fill:#000000;fill-opacity:1;fill-rule:nonzero;stroke:none"
                   transform="matrix(1,0,0,-1,290.757,43.075)"><tspan
                     id="tspan214"
                     y="0"
                     x="0 4.9812999 9.9625998 14.9439 19.9252 24.9065 29.8878 34.869099 39.850399 44.831699 49.813 54.7943">encoded-data</tspan></text>
<g
                   transform="translate(290.757,43.075)"
                   id="g218" /></g></g><g
               transform="translate(-53.931,115.203)"
               id="g220" /></g></g><g
           id="g222"><g
             id="g224"><path
               id="path226"
               style="fill:#cceffc;fill-opacity:1;fill-rule:nonzero;stroke:#000000;stroke-width:0.79701;stroke-linecap:butt;stroke-linejoin:miter;stroke-miterlimit:10;stroke-dasharray:none;stroke-opacity:1"
               d="m 200.52649,-71.33339 h -64.11433 c -2.01168,0 -3.6424,-1.63074 -3.6424,-3.64239 v -12.64075 c 0,-2.01166 1.63072,-3.6424 3.6424,-3.6424 h 64.11433 c 2.01167,0 3.64239,1.63074 3.64239,3.6424 v 12.64075 c 0,2.01165 -1.63072,3.64239 -3.64239,3.64239 z" /></g><g
             transform="translate(136.089,-84.583)"
             id="g228"><g
               id="g230"><g
                 transform="translate(-372.915,-73.695)"
                 id="g232"><text
                   id="text236"
                   style="font-variant:normal;font-weight:normal;font-size:9.96259975px;font-family:Inconsolatazi4;-inkscape-font-specification:Inconsolatazi4-Regular;writing-mode:lr-tb;fill:#000000;fill-opacity:1;fill-rule:nonzero;stroke:none"
                   transform="matrix(1,0,0,-1,372.915,73.695)"><tspan
                     id="tspan234"
                     y="0"
                     x="0 4.9812999 9.9625998 14.9439 19.9252 24.9065 29.8878 34.869099 39.850399 44.831699 49.813 54.7943 59.7756">hash-function</tspan></text>
<g
                   transform="translate(372.915,73.695)"
                   id="g238" /></g></g><g
               transform="translate(-136.089,84.583)"
               id="g240" /></g></g><g
           id="g242"><g
             id="g244"><path
               id="path246"
               style="fill:#cceffc;fill-opacity:1;fill-rule:nonzero;stroke:#000000;stroke-width:0.79701;stroke-linecap:butt;stroke-linejoin:miter;stroke-miterlimit:10;stroke-dasharray:none;stroke-opacity:1"
               d="m 195.5451,-102.0187 h -54.15156 c -2.01167,0 -3.6424,-1.63074 -3.6424,-3.6424 v -12.64075 c 0,-2.01165 1.63073,-3.64239 3.6424,-3.64239 h 54.15156 c 2.01168,0 3.6424,1.63074 3.6424,3.64239 v 12.64075 c 0,2.01166 -1.63072,3.6424 -3.6424,3.6424 z" /></g><g
             transform="translate(141.07,-114.401)"
             id="g248"><g
               id="g250"><g
                 transform="translate(-377.896,-43.877)"
                 id="g252"><text
                   id="text256"
                   style="font-variant:normal;font-weight:normal;font-size:9.96259975px;font-family:Inconsolatazi4;-inkscape-font-specification:Inconsolatazi4-Regular;writing-mode:lr-tb;fill:#000000;fill-opacity:1;fill-rule:nonzero;stroke:none"
                   transform="matrix(1,0,0,-1,377.896,43.877)"><tspan
                     id="tspan254"
                     y="0"
                     x="0 4.9812999 9.9625998 14.9439 19.9252 24.9065 29.8878 34.869099 39.850399 44.831699 49.813">digest-size</tspan></text>
<g
                   transform="translate(377.896,43.877)"
                   id="g258" /></g></g><g
               transform="translate(-141.07,114.401)"
               id="g260" /></g></g><g
           id="g262"><g
             id="g264"><path
               id="path266"
               style="fill:#ccccff;fill-opacity:1;fill-rule:nonzero;stroke:#000000;stroke-width:0.79701;stroke-linecap:butt;stroke-linejoin:miter;stroke-miterlimit:10;stroke-dasharray:none;stroke-opacity:1"
               d="m 203.01718,-132.70403 h -69.09572 c -2.01167,0 -3.64239,-1.63072 -3.64239,-3.64239 v -12.64075 c 0,-2.01166 1.63072,-3.64239 3.64239,-3.64239 h 69.09572 c 2.01167,0 3.6424,1.63073 3.6424,3.64239 v 12.64075 c 0,2.01167 -1.63073,3.64239 -3.6424,3.64239 z" /></g><g
             transform="translate(133.598,-145.086)"
             id="g268"><g
               id="g270"><g
                 transform="translate(-370.424,-13.192)"
                 id="g272"><text
                   id="text276"
                   style="font-variant:normal;font-weight:normal;font-size:9.96259975px;font-family:Inconsolatazi4;-inkscape-font-specification:Inconsolatazi4-Regular;writing-mode:lr-tb;fill:#000000;fill-opacity:1;fill-rule:nonzero;stroke:none"
                   transform="matrix(1,0,0,-1,370.424,13.192)"><tspan
                     id="tspan274"
                     y="0"
                     x="0 4.9812999 9.9625998 14.9439 19.9252 24.9065 29.8878 34.869099 39.850399 44.831699 49.813 54.7943 59.7756 64.756897">message-digest</tspan></text>
<g
                   transform="translate(370.424,13.192)"
                   id="g278" /></g></g><g
               transform="translate(-133.598,145.086)"
               id="g280" /></g></g><g
           id="g282"><path
             id="path284"
             style="fill:none;stroke:#000000;stroke-width:0.79701;stroke-linecap:butt;stroke-linejoin:miter;stroke-miterlimit:10;stroke-dasharray:none;stroke-opacity:1"
             d="m 0,-10.36127 c 0,-34.7133 83.81972,4.825 83.81972,-29.18093" /><g
             transform="rotate(-90,22.13876,-61.68096)"
             id="g286"><g
               id="g288"><path
                 id="path290"
                 style="fill:none;stroke:#000000;stroke-width:0.6376;stroke-linecap:round;stroke-linejoin:round;stroke-miterlimit:10;stroke-dasharray:none;stroke-opacity:1"
                 d="M -1.55415,2.0722 C -1.42464,1.29512 0,0.1295 0.38852,0 0,-0.1295 -1.42464,-1.29512 -1.55415,-2.0722" /></g></g></g><g
           id="g292"><path
             id="path294"
             style="fill:none;stroke:#000000;stroke-width:0.79701;stroke-linecap:butt;stroke-linejoin:miter;stroke-miterlimit:10;stroke-dasharray:none;stroke-opacity:1"
             d="M 0,-10.36127 C 0,-79.07141 -173.4507,28.46056 -173.4507,-39.5422" /><g
             transform="rotate(-90,-106.49645,66.95425)"
             id="g296"><g
               id="g298"><path
                 id="path300"
                 style="fill:none;stroke:#000000;stroke-width:0.6376;stroke-linecap:round;stroke-linejoin:round;stroke-miterlimit:10;stroke-dasharray:none;stroke-opacity:1"
                 d="M -1.55415,2.0722 C -1.42464,1.29512 0,0.1295 0.38852,0 0,-0.1295 -1.42464,-1.29512 -1.55415,-2.0722" /></g></g></g><g
           id="g302"><path
             id="path304"
             style="fill:none;stroke:#000000;stroke-width:0.79701;stroke-linecap:butt;stroke-linejoin:miter;stroke-miterlimit:10;stroke-dasharray:none;stroke-opacity:1"
             d="M 0,-10.36127 C 0,-45.95901 -86.31041,-4.65182 -86.31041,-39.5422" /><g
             transform="rotate(-90,-62.926305,23.384105)"
             id="g306"><g
               id="g308"><path
                 id="path310"
                 style="fill:none;stroke:#000000;stroke-width:0.6376;stroke-linecap:round;stroke-linejoin:round;stroke-miterlimit:10;stroke-dasharray:none;stroke-opacity:1"
                 d="M -1.55415,2.0722 C -1.42464,1.29512 0,0.1295 0.38852,0 0,-0.1295 -1.42464,-1.29512 -1.55415,-2.0722" /></g></g></g><g
           id="g312"><path
             id="path314"
             style="fill:none;stroke:#000000;stroke-width:0.79701;stroke-linecap:butt;stroke-linejoin:miter;stroke-miterlimit:10;stroke-dasharray:none;stroke-opacity:1"
             d="M 0,-10.36127 C 0,-77.09818 168.46931,26.48732 168.46931,-39.5422" /><g
             transform="rotate(-90,64.463555,-104.00575)"
             id="g316"><g
               id="g318"><path
                 id="path320"
                 style="fill:none;stroke:#000000;stroke-width:0.6376;stroke-linecap:round;stroke-linejoin:round;stroke-miterlimit:10;stroke-dasharray:none;stroke-opacity:1"
                 d="M -1.55415,2.0722 C -1.42464,1.29512 0,0.1295 0.38852,0 0,-0.1295 -1.42464,-1.29512 -1.55415,-2.0722" /></g></g></g><g
           id="g322"><path
             id="path324"
             style="fill:none;stroke:#000000;stroke-width:0.79701;stroke-linecap:butt;stroke-linejoin:miter;stroke-miterlimit:10;stroke-dasharray:none;stroke-opacity:1"
             d="m 194.60463,-50.61084 c 36.32315,0 48.77661,-92.05596 13.16081,-92.05596" /><g
             transform="rotate(180,103.88272,-71.3334)"
             id="g326"><g
               id="g328"><path
                 id="path330"
                 style="fill:none;stroke:#000000;stroke-width:0.6376;stroke-linecap:round;stroke-linejoin:round;stroke-miterlimit:10;stroke-dasharray:none;stroke-opacity:1"
                 d="M -1.55415,2.0722 C -1.42464,1.29512 0,0.1295 0.38852,0 0,-0.1295 -1.42464,-1.29512 -1.55415,-2.0722" /></g></g></g><g
           id="g332"><path
             id="path334"
             style="fill:none;stroke:#000000;stroke-width:0.79701;stroke-linecap:butt;stroke-linejoin:miter;stroke-miterlimit:10;stroke-dasharray:none;stroke-opacity:1"
             d="m 194.60463,-50.61084 c 24.02621,0 29.0076,-61.37064 5.68874,-61.37064" /><g
             transform="rotate(180,100.14668,-55.99074)"
             id="g336"><g
               id="g338"><path
                 id="path340"
                 style="fill:none;stroke:#000000;stroke-width:0.6376;stroke-linecap:round;stroke-linejoin:round;stroke-miterlimit:10;stroke-dasharray:none;stroke-opacity:1"
                 d="M -1.55415,2.0722 C -1.42464,1.29512 0,0.1295 0.38852,0 0,-0.1295 -1.42464,-1.29512 -1.55415,-2.0722" /></g></g></g><g
           id="g342"><path
             id="path344"
             style="fill:none;stroke:#000000;stroke-width:0.79701;stroke-linecap:butt;stroke-linejoin:miter;stroke-miterlimit:10;stroke-dasharray:none;stroke-opacity:1"
             d="m 194.60463,-50.61084 c 12.60393,0 22.5667,-30.68532 10.67012,-30.68532" /><g
             transform="rotate(180,102.63737,-40.64808)"
             id="g346"><g
               id="g348"><path
                 id="path350"
                 style="fill:none;stroke:#000000;stroke-width:0.6376;stroke-linecap:round;stroke-linejoin:round;stroke-miterlimit:10;stroke-dasharray:none;stroke-opacity:1"
                 d="M -1.55415,2.0722 C -1.42464,1.29512 0,0.1295 0.38852,0 0,-0.1295 -1.42464,-1.29512 -1.55415,-2.0722" /></g></g></g><g
           id="g352"><path
             id="path354"
             style="fill:none;stroke:#000000;stroke-width:0.79701;stroke-linecap:butt;stroke-linejoin:miter;stroke-miterlimit:10;stroke-dasharray:none;stroke-opacity:1"
             d="m 55.19373,-50.61084 c -12.0602,0 -8.73964,-30.68532 2.6132,-30.68532" /><g
             transform="translate(57.80693,-81.29616)"
             id="g356"><g
               id="g358"><path
                 id="path360"
                 style="fill:none;stroke:#000000;stroke-width:0.6376;stroke-linecap:round;stroke-linejoin:round;stroke-miterlimit:10;stroke-dasharray:none;stroke-opacity:1"
                 d="M -1.55415,2.0722 C -1.42464,1.29512 0,0.1295 0.38852,0 0,-0.1295 -1.42464,-1.29512 -1.55415,-2.0722" /></g></g></g><g
           id="g362"><path
             id="path364"
             style="fill:none;stroke:#000000;stroke-width:0.79701;stroke-linecap:butt;stroke-linejoin:miter;stroke-miterlimit:10;stroke-dasharray:none;stroke-opacity:1"
             d="m 55.19373,-50.61084 c -24.02623,0 -29.00762,-61.37064 -5.68876,-61.37064" /><g
             transform="translate(49.50497,-111.98148)"
             id="g366"><g
               id="g368"><path
                 id="path370"
                 style="fill:none;stroke:#000000;stroke-width:0.6376;stroke-linecap:round;stroke-linejoin:round;stroke-miterlimit:10;stroke-dasharray:none;stroke-opacity:1"
                 d="M -1.55415,2.0722 C -1.42464,1.29512 0,0.1295 0.38852,0 0,-0.1295 -1.42464,-1.29512 -1.55415,-2.0722" /></g></g></g><g
           id="g372"><path
             id="path374"
             style="fill:none;stroke:#000000;stroke-width:0.79701;stroke-linecap:butt;stroke-linejoin:miter;stroke-miterlimit:10;stroke-dasharray:none;stroke-opacity:1"
             d="m -55.19373,-50.61084 c 12.2038,0 6.39253,-30.68532 -5.10389,-30.68532" /><g
             transform="rotate(180,-30.14881,-40.64808)"
             id="g376"><g
               id="g378"><path
                 id="path380"
                 style="fill:none;stroke:#000000;stroke-width:0.6376;stroke-linecap:round;stroke-linejoin:round;stroke-miterlimit:10;stroke-dasharray:none;stroke-opacity:1"
                 d="M -1.55415,2.0722 C -1.42464,1.29512 0,0.1295 0.38852,0 0,-0.1295 -1.42464,-1.29512 -1.55415,-2.0722" /></g></g></g><g
           id="g382"><path
             id="path384"
             style="fill:none;stroke:#000000;stroke-width:0.79701;stroke-linecap:butt;stroke-linejoin:miter;stroke-miterlimit:10;stroke-dasharray:none;stroke-opacity:1"
             d="m -199.58601,-50.61084 c -24.12039,0 -31.59247,-61.37064 -8.17943,-61.37064" /><g
             transform="translate(-207.76544,-111.98148)"
             id="g386"><g
               id="g388"><path
                 id="path390"
                 style="fill:none;stroke:#000000;stroke-width:0.6376;stroke-linecap:round;stroke-linejoin:round;stroke-miterlimit:10;stroke-dasharray:none;stroke-opacity:1"
                 d="M -1.55415,2.0722 C -1.42464,1.29512 0,0.1295 0.38852,0 0,-0.1295 -1.42464,-1.29512 -1.55415,-2.0722" /></g></g></g><g
           id="g392"><path
             id="path394"
             style="fill:none;stroke:#000000;stroke-width:0.79701;stroke-linecap:butt;stroke-linejoin:miter;stroke-miterlimit:10;stroke-dasharray:none;stroke-opacity:1"
             d="m -199.58601,-50.61084 c -12.60393,0 -22.5667,-30.68532 -10.67012,-30.68532" /><g
             transform="translate(-210.25613,-81.29616)"
             id="g396"><g
               id="g398"><path
                 id="path400"
                 style="fill:none;stroke:#000000;stroke-width:0.6376;stroke-linecap:round;stroke-linejoin:round;stroke-miterlimit:10;stroke-dasharray:none;stroke-opacity:1"
                 d="M -1.55415,2.0722 C -1.42464,1.29512 0,0.1295 0.38852,0 0,-0.1295 -1.42464,-1.29512 -1.55415,-2.0722" /></g></g></g></g></g></g></svg>