<?xml version="1.0" encoding="UTF-8" standalone="no"?>
<svg
   xmlns:dc="http://purl.org/dc/elements/1.1/"
   xmlns:cc="http://creativecommons.org/ns#"
   xmlns:rdf="http://www.w3.org/1999/02/22-rdf-syntax-ns#"
   xmlns:svg="http://www.w3.org/2000/svg"
   xmlns="http://www.w3.org/2000/svg"
   viewBox="0 0 200.52745 79.580582"
   height="79.580582"
   width="200.52745"
   xml:space="preserve"
   id="svg2"
   version="1.1"><metadata
     id="metadata8"><rdf:RDF><cc:Work
         rdf:about=""><dc:format>image/svg+xml</dc:format><dc:type
           rdf:resource="http://purl.org/dc/dcmitype/StillImage" /></cc:Work></rdf:RDF></metadata><defs
     id="defs6" /><g
     transform="matrix(1.3333333,0,0,-1.3333333,107.82304,36.010786)"
     id="g10"><g
       id="g12"><g
         id="g14"><g
           id="g16"><g
             id="g18"><path
               id="path20"
               style="fill:#cceffc;fill-opacity:1;fill-rule:nonzero;stroke:#000000;stroke-width:0.3985;stroke-linecap:butt;stroke-linejoin:miter;stroke-miterlimit:10;stroke-dasharray:none;stroke-opacity:1"
               d="m -66.73569,11.33855 c 0,3.84733 -3.11881,6.96615 -6.96617,6.96615 -3.84735,0 -6.96617,-3.11882 -6.96617,-6.96615 0,-3.84735 3.11882,-6.96617 6.96617,-6.96617 3.84736,0 6.96617,3.11882 6.96617,6.96617 z" /></g><g
             transform="matrix(0.8,0,0,0.8,-75.693,8.77)"
             id="g22"><g
               id="g24"><g
                 transform="translate(-5.673,-41.947)"
                 id="g26"><text
                   id="text30"
                   style="font-variant:normal;font-weight:normal;font-size:9.96259975px;font-family:CMR10;-inkscape-font-specification:CMR10;writing-mode:lr-tb;fill:#000000;fill-opacity:1;fill-rule:nonzero;stroke:none"
                   transform="matrix(1,0,0,-1,5.673,41.947)"><tspan
                     id="tspan28"
                     y="0"
                     x="0">1</tspan></text>
<g
                   transform="translate(5.673,41.947)"
                   id="g32" /></g></g><g
               transform="translate(75.693,-8.77)"
               id="g34" /></g></g><g
           id="g36"><g
             id="g38"><path
               id="path40"
               style="fill:#cceffc;fill-opacity:1;fill-rule:nonzero;stroke:#000000;stroke-width:0.3985;stroke-linecap:butt;stroke-linejoin:miter;stroke-miterlimit:10;stroke-dasharray:none;stroke-opacity:1"
               d="m -39.80588,-15.59082 c 0,3.84735 -3.11882,6.96617 -6.96615,6.96617 -3.84735,0 -6.96617,-3.11882 -6.96617,-6.96617 0,-3.84735 3.11882,-6.96617 6.96617,-6.96617 3.84733,0 6.96615,3.11882 6.96615,6.96617 z" /></g><g
             transform="matrix(0.8,0,0,0.8,-48.764,-18.159)"
             id="g42"><g
               id="g44"><g
                 transform="translate(-32.602,-15.018)"
                 id="g46"><text
                   id="text50"
                   style="font-variant:normal;font-weight:normal;font-size:9.96259975px;font-family:CMR10;-inkscape-font-specification:CMR10;writing-mode:lr-tb;fill:#000000;fill-opacity:1;fill-rule:nonzero;stroke:none"
                   transform="matrix(1,0,0,-1,32.602,15.018)"><tspan
                     id="tspan48"
                     y="0"
                     x="0">2</tspan></text>
<g
                   transform="translate(32.602,15.018)"
                   id="g52" /></g></g><g
               transform="translate(48.764,18.159)"
               id="g54" /></g></g><g
           id="g56"><g
             id="g58"><path
               id="path60"
               style="fill:#cceffc;fill-opacity:1;fill-rule:nonzero;stroke:#000000;stroke-width:0.3985;stroke-linecap:butt;stroke-linejoin:miter;stroke-miterlimit:10;stroke-dasharray:none;stroke-opacity:1"
               d="m -52.56229,18.70897 c 0,3.84735 -3.11883,6.96617 -6.96617,6.96617 -3.84735,0 -6.96617,-3.11882 -6.96617,-6.96617 0,-3.84734 3.11882,-6.96616 6.96617,-6.96616 3.84734,0 6.96617,3.11882 6.96617,6.96616 z" /></g><g
             transform="matrix(0.8,0,0,0.8,-61.52,16.141)"
             id="g62"><g
               id="g64"><g
                 transform="translate(-19.846,-49.318)"
                 id="g66"><text
                   id="text70"
                   style="font-variant:normal;font-weight:normal;font-size:9.96259975px;font-family:CMR10;-inkscape-font-specification:CMR10;writing-mode:lr-tb;fill:#000000;fill-opacity:1;fill-rule:nonzero;stroke:none"
                   transform="matrix(1,0,0,-1,19.846,49.318)"><tspan
                     id="tspan68"
                     y="0"
                     x="0">3</tspan></text>
<g
                   transform="translate(19.846,49.318)"
                   id="g72" /></g></g><g
               transform="translate(61.52,-16.141)"
               id="g74" /></g></g><g
           id="g76"><g
             id="g78"><path
               id="path80"
               style="fill:#cceffc;fill-opacity:1;fill-rule:nonzero;stroke:#000000;stroke-width:0.3985;stroke-linecap:butt;stroke-linejoin:miter;stroke-miterlimit:10;stroke-dasharray:none;stroke-opacity:1"
               d="m -19.9632,-25.51193 c 0,3.84733 -3.11882,6.96617 -6.96617,6.96617 -3.84735,0 -6.96617,-3.11884 -6.96617,-6.96617 0,-3.84735 3.11882,-6.96617 6.96617,-6.96617 3.84735,0 6.96617,3.11882 6.96617,6.96617 z" /></g><g
             transform="matrix(0.8,0,0,0.8,-28.921,-28.08)"
             id="g82"><g
               id="g84"><g
                 transform="translate(-52.445,-5.097)"
                 id="g86"><text
                   id="text90"
                   style="font-variant:normal;font-weight:normal;font-size:9.96259975px;font-family:CMR10;-inkscape-font-specification:CMR10;writing-mode:lr-tb;fill:#000000;fill-opacity:1;fill-rule:nonzero;stroke:none"
                   transform="matrix(1,0,0,-1,52.445,5.097)"><tspan
                     id="tspan88"
                     y="0"
                     x="0">4</tspan></text>
<g
                   transform="translate(52.445,5.097)"
                   id="g92" /></g></g><g
               transform="translate(28.921,28.08)"
               id="g94" /></g></g><g
           id="g96"><g
             id="g98"><path
               id="path100"
               style="fill:#cceffc;fill-opacity:1;fill-rule:nonzero;stroke:#000000;stroke-width:0.3985;stroke-linecap:butt;stroke-linejoin:miter;stroke-miterlimit:10;stroke-dasharray:none;stroke-opacity:1"
               d="m -5.7898,0 c 0,3.84734 -3.11882,6.96616 -6.96615,6.96616 -3.84735,0 -6.96617,-3.11882 -6.96617,-6.96616 0,-3.84734 3.11882,-6.96616 6.96617,-6.96616 3.84733,0 6.96615,3.11882 6.96615,6.96616 z" /></g><g
             transform="matrix(0.8,0,0,0.8,-14.748,-2.568)"
             id="g102"><g
               id="g104"><g
                 transform="translate(-66.618,-30.609)"
                 id="g106"><text
                   id="text110"
                   style="font-variant:normal;font-weight:normal;font-size:9.96259975px;font-family:CMR10;-inkscape-font-specification:CMR10;writing-mode:lr-tb;fill:#000000;fill-opacity:1;fill-rule:nonzero;stroke:none"
                   transform="matrix(1,0,0,-1,66.618,30.609)"><tspan
                     id="tspan108"
                     y="0"
                     x="0">5</tspan></text>
<g
                   transform="translate(66.618,30.609)"
                   id="g112" /></g></g><g
               transform="translate(14.748,2.568)"
               id="g114" /></g></g><g
           id="g116"><g
             id="g118"><path
               id="path120"
               style="fill:#cceffc;fill-opacity:1;fill-rule:nonzero;stroke:#000000;stroke-width:0.3985;stroke-linecap:butt;stroke-linejoin:miter;stroke-miterlimit:10;stroke-dasharray:none;stroke-opacity:1"
               d="m 14.05286,19.84267 c 0,3.84735 -3.11882,6.96617 -6.96617,6.96617 -3.84736,0 -6.96618,-3.11882 -6.96618,-6.96617 0,-3.84735 3.11882,-6.96617 6.96618,-6.96617 3.84735,0 6.96617,3.11882 6.96617,6.96617 z" /></g><g
             transform="matrix(0.8,0,0,0.8,5.094,17.274)"
             id="g122"><g
               id="g124"><g
                 transform="translate(-86.46,-50.451)"
                 id="g126"><text
                   id="text130"
                   style="font-variant:normal;font-weight:normal;font-size:9.96259975px;font-family:CMR10;-inkscape-font-specification:CMR10;writing-mode:lr-tb;fill:#000000;fill-opacity:1;fill-rule:nonzero;stroke:none"
                   transform="matrix(1,0,0,-1,86.46,50.451)"><tspan
                     id="tspan128"
                     y="0"
                     x="0">6</tspan></text>
<g
                   transform="translate(86.46,50.451)"
                   id="g132" /></g></g><g
               transform="translate(-5.094,-17.274)"
               id="g134" /></g></g><g
           id="g136"><g
             id="g138"><path
               id="path140"
               style="fill:#cceffc;fill-opacity:1;fill-rule:nonzero;stroke:#000000;stroke-width:0.3985;stroke-linecap:butt;stroke-linejoin:miter;stroke-miterlimit:10;stroke-dasharray:none;stroke-opacity:1"
               d="m 28.22627,-22.67752 c 0,3.84735 -3.11883,6.96617 -6.96617,6.96617 -3.84735,0 -6.96617,-3.11882 -6.96617,-6.96617 0,-3.84734 3.11882,-6.96616 6.96617,-6.96616 3.84734,0 6.96617,3.11882 6.96617,6.96616 z" /></g><g
             transform="matrix(0.8,0,0,0.8,19.268,-25.245)"
             id="g142"><g
               id="g144"><g
                 transform="translate(-100.634,-7.932)"
                 id="g146"><text
                   id="text150"
                   style="font-variant:normal;font-weight:normal;font-size:9.96259975px;font-family:CMR10;-inkscape-font-specification:CMR10;writing-mode:lr-tb;fill:#000000;fill-opacity:1;fill-rule:nonzero;stroke:none"
                   transform="matrix(1,0,0,-1,100.634,7.932)"><tspan
                     id="tspan148"
                     y="0"
                     x="0">7</tspan></text>
<g
                   transform="translate(100.634,7.932)"
                   id="g152" /></g></g><g
               transform="translate(-19.268,25.245)"
               id="g154" /></g></g><g
           id="g156"><g
             id="g158"><path
               id="path160"
               style="fill:#cceffc;fill-opacity:1;fill-rule:nonzero;stroke:#000000;stroke-width:0.3985;stroke-linecap:butt;stroke-linejoin:miter;stroke-miterlimit:10;stroke-dasharray:none;stroke-opacity:1"
               d="m 60.82492,0 c 0,3.84734 -3.11882,6.96616 -6.96617,6.96616 -3.84735,0 -6.96617,-3.11882 -6.96617,-6.96616 0,-3.84734 3.11882,-6.96616 6.96617,-6.96616 3.84735,0 6.96617,3.11882 6.96617,6.96616 z" /></g><g
             transform="matrix(0.8,0,0,0.8,51.866,-2.568)"
             id="g162"><g
               id="g164"><g
                 transform="translate(-133.232,-30.609)"
                 id="g166"><text
                   id="text170"
                   style="font-variant:normal;font-weight:normal;font-size:9.96259975px;font-family:CMR10;-inkscape-font-specification:CMR10;writing-mode:lr-tb;fill:#000000;fill-opacity:1;fill-rule:nonzero;stroke:none"
                   transform="matrix(1,0,0,-1,133.232,30.609)"><tspan
                     id="tspan168"
                     y="0"
                     x="0">8</tspan></text>
<g
                   transform="translate(133.232,30.609)"
                   id="g172" /></g></g><g
               transform="translate(-51.866,2.568)"
               id="g174" /></g></g><g
           id="g176"><g
             id="g178"><path
               id="path180"
               style="fill:#cceffc;fill-opacity:1;fill-rule:nonzero;stroke:#000000;stroke-width:0.3985;stroke-linecap:butt;stroke-linejoin:miter;stroke-miterlimit:10;stroke-dasharray:none;stroke-opacity:1"
               d="m 69.32906,11.33855 c 0,3.84733 -3.11882,6.96615 -6.96618,6.96615 -3.84735,0 -6.96617,-3.11882 -6.96617,-6.96615 0,-3.84735 3.11882,-6.96617 6.96617,-6.96617 3.84736,0 6.96618,3.11882 6.96618,6.96617 z" /></g><g
             transform="matrix(0.8,0,0,0.8,60.37,8.77)"
             id="g182"><g
               id="g184"><g
                 transform="translate(-141.736,-41.947)"
                 id="g186"><text
                   id="text190"
                   style="font-variant:normal;font-weight:normal;font-size:9.96259975px;font-family:CMR10;-inkscape-font-specification:CMR10;writing-mode:lr-tb;fill:#000000;fill-opacity:1;fill-rule:nonzero;stroke:none"
                   transform="matrix(1,0,0,-1,141.736,41.947)"><tspan
                     id="tspan188"
                     y="0"
                     x="0">9</tspan></text>
<g
                   transform="translate(141.736,41.947)"
                   id="g192" /></g></g><g
               transform="translate(-60.37,-8.77)"
               id="g194" /></g></g><g
           id="g196"><g
             id="g198"><path
               id="path200"
               style="fill:#cceffc;fill-opacity:1;fill-rule:nonzero;stroke:#000000;stroke-width:0.3985;stroke-linecap:butt;stroke-linejoin:miter;stroke-miterlimit:10;stroke-dasharray:none;stroke-opacity:1"
               d="m 35.34637,-5.66927 c 0,4.64862 -3.76837,8.417 -8.417,8.417 -4.64862,0 -8.417,-3.76838 -8.417,-8.417 0,-4.64863 3.76838,-8.417 8.417,-8.417 4.64863,0 8.417,3.76837 8.417,8.417 z" /></g><g
             transform="matrix(0.8,0,0,0.8,22.944,-8.237)"
             id="g202"><g
               id="g204"><g
                 transform="translate(-104.31,-24.94)"
                 id="g206"><text
                   id="text210"
                   style="font-variant:normal;font-weight:normal;font-size:9.96259975px;font-family:CMR10;-inkscape-font-specification:CMR10;writing-mode:lr-tb;fill:#000000;fill-opacity:1;fill-rule:nonzero;stroke:none"
                   transform="matrix(1,0,0,-1,104.31,24.94)"><tspan
                     id="tspan208"
                     y="0"
                     x="0 4.9812999">10</tspan></text>
<g
                   transform="translate(104.31,24.94)"
                   id="g212" /></g></g><g
               transform="translate(-22.944,8.237)"
               id="g214" /></g></g><g
           id="g216"><g
             id="g218"><path
               id="path220"
               style="fill:#cceffc;fill-opacity:1;fill-rule:nonzero;stroke:#000000;stroke-width:0.3985;stroke-linecap:butt;stroke-linejoin:miter;stroke-miterlimit:10;stroke-dasharray:none;stroke-opacity:1"
               d="m 56.60648,-22.67752 c 0,4.64864 -3.76838,8.41701 -8.41701,8.41701 -4.64862,0 -8.41699,-3.76837 -8.41699,-8.41701 0,-4.64862 3.76837,-8.41699 8.41699,-8.41699 4.64863,0 8.41701,3.76837 8.41701,8.41699 z" /></g><g
             transform="matrix(0.8,0,0,0.8,44.204,-25.245)"
             id="g222"><g
               id="g224"><g
                 transform="translate(-125.57,-7.932)"
                 id="g226"><text
                   id="text230"
                   style="font-variant:normal;font-weight:normal;font-size:9.96259975px;font-family:CMR10;-inkscape-font-specification:CMR10;writing-mode:lr-tb;fill:#000000;fill-opacity:1;fill-rule:nonzero;stroke:none"
                   transform="matrix(1,0,0,-1,125.57,7.932)"><tspan
                     id="tspan228"
                     y="0"
                     x="0 4.9812999">11</tspan></text>
<g
                   transform="translate(125.57,7.932)"
                   id="g232" /></g></g><g
               transform="translate(-44.204,25.245)"
               id="g234" /></g></g><g
           id="g236"><g
             id="g238"><path
               id="path240"
               style="fill:#cceffc;fill-opacity:1;fill-rule:nonzero;stroke:#000000;stroke-width:0.3985;stroke-linecap:butt;stroke-linejoin:miter;stroke-miterlimit:10;stroke-dasharray:none;stroke-opacity:1"
               d="m -0.08711,-17.00824 c 0,4.64864 -3.76837,8.41701 -8.41701,8.41701 -4.64862,0 -8.41699,-3.76837 -8.41699,-8.41701 0,-4.64862 3.76837,-8.41701 8.41699,-8.41701 4.64864,0 8.41701,3.76839 8.41701,8.41701 z" /></g><g
             transform="matrix(0.8,0,0,0.8,-12.489,-19.576)"
             id="g242"><g
               id="g244"><g
                 transform="translate(-68.877,-13.601)"
                 id="g246"><text
                   id="text250"
                   style="font-variant:normal;font-weight:normal;font-size:9.96259975px;font-family:CMR10;-inkscape-font-specification:CMR10;writing-mode:lr-tb;fill:#000000;fill-opacity:1;fill-rule:nonzero;stroke:none"
                   transform="matrix(1,0,0,-1,68.877,13.601)"><tspan
                     id="tspan248"
                     y="0"
                     x="0 4.9812999">12</tspan></text>
<g
                   transform="translate(68.877,13.601)"
                   id="g252" /></g></g><g
               transform="translate(12.489,19.576)"
               id="g254" /></g></g><g
           id="g256"><g
             id="g258"><path
               id="path260"
               style="fill:#d5c9e9;fill-opacity:1;fill-rule:nonzero;stroke:#000000;stroke-width:0.3985;stroke-linecap:butt;stroke-linejoin:miter;stroke-miterlimit:10;stroke-dasharray:none;stroke-opacity:1"
               d="m -0.08711,-17.00824 c 0,4.64864 -3.76837,8.41701 -8.41701,8.41701 -4.64862,0 -8.41699,-3.76837 -8.41699,-8.41701 0,-4.64862 3.76837,-8.41701 8.41699,-8.41701 4.64864,0 8.41701,3.76839 8.41701,8.41701 z" /></g><g
             transform="matrix(0.8,0,0,0.8,-12.489,-19.576)"
             id="g262"><g
               id="g264"><g
                 transform="translate(-68.877,-13.601)"
                 id="g266"><text
                   id="text270"
                   style="font-variant:normal;font-weight:normal;font-size:9.96259975px;font-family:CMR10;-inkscape-font-specification:CMR10;writing-mode:lr-tb;fill:#000000;fill-opacity:1;fill-rule:nonzero;stroke:none"
                   transform="matrix(1,0,0,-1,68.877,13.601)"><tspan
                     id="tspan268"
                     y="0"
                     x="0 4.9812999">12</tspan></text>
<g
                   transform="translate(68.877,13.601)"
                   id="g272" /></g></g><g
               transform="translate(12.489,19.576)"
               id="g274" /></g></g><g
           id="g276"><g
             id="g278"><path
               id="path280"
               style="fill:#d5c9e9;fill-opacity:1;fill-rule:nonzero;stroke:#000000;stroke-width:0.3985;stroke-linecap:butt;stroke-linejoin:miter;stroke-miterlimit:10;stroke-dasharray:none;stroke-opacity:1"
               d="m -52.56229,18.70897 c 0,3.84735 -3.11883,6.96617 -6.96617,6.96617 -3.84735,0 -6.96617,-3.11882 -6.96617,-6.96617 0,-3.84734 3.11882,-6.96616 6.96617,-6.96616 3.84734,0 6.96617,3.11882 6.96617,6.96616 z" /></g><g
             transform="matrix(0.8,0,0,0.8,-61.52,16.141)"
             id="g282"><g
               id="g284"><g
                 transform="translate(-19.846,-49.318)"
                 id="g286"><text
                   id="text290"
                   style="font-variant:normal;font-weight:normal;font-size:9.96259975px;font-family:CMR10;-inkscape-font-specification:CMR10;writing-mode:lr-tb;fill:#000000;fill-opacity:1;fill-rule:nonzero;stroke:none"
                   transform="matrix(1,0,0,-1,19.846,49.318)"><tspan
                     id="tspan288"
                     y="0"
                     x="0">3</tspan></text>
<g
                   transform="translate(19.846,49.318)"
                   id="g292" /></g></g><g
               transform="translate(61.52,-16.141)"
               id="g294" /></g></g><g
           id="g296"><g
             id="g298"><path
               id="path300"
               style="fill:#d5c9e9;fill-opacity:1;fill-rule:nonzero;stroke:#000000;stroke-width:0.3985;stroke-linecap:butt;stroke-linejoin:miter;stroke-miterlimit:10;stroke-dasharray:none;stroke-opacity:1"
               d="m -19.9632,-25.51193 c 0,3.84733 -3.11882,6.96617 -6.96617,6.96617 -3.84735,0 -6.96617,-3.11884 -6.96617,-6.96617 0,-3.84735 3.11882,-6.96617 6.96617,-6.96617 3.84735,0 6.96617,3.11882 6.96617,6.96617 z" /></g><g
             transform="matrix(0.8,0,0,0.8,-28.921,-28.08)"
             id="g302"><g
               id="g304"><g
                 transform="translate(-52.445,-5.097)"
                 id="g306"><text
                   id="text310"
                   style="font-variant:normal;font-weight:normal;font-size:9.96259975px;font-family:CMR10;-inkscape-font-specification:CMR10;writing-mode:lr-tb;fill:#000000;fill-opacity:1;fill-rule:nonzero;stroke:none"
                   transform="matrix(1,0,0,-1,52.445,5.097)"><tspan
                     id="tspan308"
                     y="0"
                     x="0">4</tspan></text>
<g
                   transform="translate(52.445,5.097)"
                   id="g312" /></g></g><g
               transform="translate(28.921,28.08)"
               id="g314" /></g></g><g
           id="g316"><g
             id="g318"><path
               id="path320"
               style="fill:#ffcccc;fill-opacity:1;fill-rule:nonzero;stroke:#000000;stroke-width:0.3985;stroke-linecap:butt;stroke-linejoin:miter;stroke-miterlimit:10;stroke-dasharray:none;stroke-opacity:1"
               d="m -5.7898,0 c 0,3.84734 -3.11882,6.96616 -6.96615,6.96616 -3.84735,0 -6.96617,-3.11882 -6.96617,-6.96616 0,-3.84734 3.11882,-6.96616 6.96617,-6.96616 3.84733,0 6.96615,3.11882 6.96615,6.96616 z" /></g><g
             transform="matrix(0.8,0,0,0.8,-14.748,-2.568)"
             id="g322"><g
               id="g324"><g
                 transform="translate(-66.618,-30.609)"
                 id="g326"><text
                   id="text330"
                   style="font-variant:normal;font-weight:normal;font-size:9.96259975px;font-family:CMR10;-inkscape-font-specification:CMR10;writing-mode:lr-tb;fill:#000000;fill-opacity:1;fill-rule:nonzero;stroke:none"
                   transform="matrix(1,0,0,-1,66.618,30.609)"><tspan
                     id="tspan328"
                     y="0"
                     x="0">5</tspan></text>
<g
                   transform="translate(66.618,30.609)"
                   id="g332" /></g></g><g
               transform="translate(14.748,2.568)"
               id="g334" /></g></g><g
           id="g336"><g
             id="g338"><path
               id="path340"
               style="fill:none;stroke:#000000;stroke-width:0.3985;stroke-linecap:butt;stroke-linejoin:miter;stroke-miterlimit:10;stroke-dasharray:none;stroke-opacity:1"
               d="M -68.66331,6.3 -51.8358,-10.52727" /></g></g><g
           id="g342"><g
             id="g344"><path
               id="path346"
               style="fill:none;stroke:#000000;stroke-width:0.3985;stroke-linecap:butt;stroke-linejoin:miter;stroke-miterlimit:10;stroke-dasharray:none;stroke-opacity:1"
               d="m -67.37988,14.62602 1.52946,0.79538" /></g></g><g
           id="g348"><g
             id="g350"><path
               id="path352"
               style="fill:none;stroke:#000000;stroke-width:0.3985;stroke-linecap:butt;stroke-linejoin:miter;stroke-miterlimit:10;stroke-dasharray:none;stroke-opacity:1"
               d="m -49.2572,-8.90799 -7.78597,20.93414" /></g></g><g
           id="g354"><g
             id="g356"><path
               id="path358"
               style="fill:none;stroke:#000000;stroke-width:0.3985;stroke-linecap:butt;stroke-linejoin:miter;stroke-miterlimit:10;stroke-dasharray:none;stroke-opacity:1"
               d="m -52.4032,18.8301 52.36466,0.89144" /></g></g><g
           id="g360"><g
             id="g362"><path
               id="path364"
               style="fill:none;stroke:#000000;stroke-width:0.3985;stroke-linecap:butt;stroke-linejoin:miter;stroke-miterlimit:10;stroke-dasharray:none;stroke-opacity:1"
               d="m -40.37332,-18.7899 7.07068,-3.53555" /></g></g><g
           id="g366"><path
             id="path368"
             style="fill:none;stroke:#000000;stroke-width:0.79701;stroke-linecap:butt;stroke-linejoin:miter;stroke-miterlimit:10;stroke-dasharray:none;stroke-opacity:1"
             d="m -7.71707,5.03854 9.26257,9.2629" /><g
             transform="matrix(0.7106,0.71065,-0.71065,0.7106,1.5455,14.30144)"
             id="g370"><g
               id="g372"><path
                 id="path374"
                 style="fill:none;stroke:#000000;stroke-width:0.6376;stroke-linecap:round;stroke-linejoin:round;stroke-miterlimit:10;stroke-dasharray:none;stroke-opacity:1"
                 d="M -1.55415,2.0722 C -1.42464,1.29512 0,0.1295 0.38852,0 0,-0.1295 -1.42464,-1.29512 -1.55415,-2.0722" /></g></g></g><g
           id="g376"><path
             id="path378"
             style="fill:none;stroke:#000000;stroke-width:0.79701;stroke-linecap:butt;stroke-linejoin:miter;stroke-miterlimit:10;stroke-dasharray:none;stroke-opacity:1"
             d="M -16.22446,-6.24344 -23.1162,-18.64868" /><g
             transform="matrix(-0.48679,-0.8762,0.8762,-0.48679,-23.11618,-18.64867)"
             id="g380"><g
               id="g382"><path
                 id="path384"
                 style="fill:none;stroke:#000000;stroke-width:0.6376;stroke-linecap:round;stroke-linejoin:round;stroke-miterlimit:10;stroke-dasharray:none;stroke-opacity:1"
                 d="M -1.55415,2.0722 C -1.42464,1.29512 0,0.1295 0.38852,0 0,-0.1295 -1.42464,-1.29512 -1.55415,-2.0722" /></g></g></g><g
           id="g386"><path
             id="path388"
             style="fill:none;stroke:#000000;stroke-width:0.79701;stroke-linecap:butt;stroke-linejoin:miter;stroke-miterlimit:10;stroke-dasharray:none;stroke-opacity:1"
             d="M -19.25394,-2.97813 -39.629,-12.3168" /><g
             transform="matrix(-0.91193,-0.41797,0.41797,-0.91193,-39.62898,-12.31679)"
             id="g390"><g
               id="g392"><path
                 id="path394"
                 style="fill:none;stroke:#000000;stroke-width:0.6376;stroke-linecap:round;stroke-linejoin:round;stroke-miterlimit:10;stroke-dasharray:none;stroke-opacity:1"
                 d="M -1.55415,2.0722 C -1.42464,1.29512 0,0.1295 0.38852,0 0,-0.1295 -1.42464,-1.29512 -1.55415,-2.0722" /></g></g></g><g
           id="g396"><path
             id="path398"
             style="fill:none;stroke:#000000;stroke-width:0.79701;stroke-linecap:butt;stroke-linejoin:miter;stroke-miterlimit:10;stroke-dasharray:none;stroke-opacity:1"
             d="M -6.80888,-3.96463 14.72267,-18.31898" /><g
             transform="matrix(0.83461,-0.5564,0.5564,0.83461,14.72266,-18.31897)"
             id="g400"><g
               id="g402"><path
                 id="path404"
                 style="fill:none;stroke:#000000;stroke-width:0.6376;stroke-linecap:round;stroke-linejoin:round;stroke-miterlimit:10;stroke-dasharray:none;stroke-opacity:1"
                 d="M -1.55415,2.0722 C -1.42464,1.29512 0,0.1295 0.38852,0 0,-0.1295 -1.42464,-1.29512 -1.55415,-2.0722" /></g></g></g><g
           id="g406"><g
             id="g408"><path
               id="path410"
               style="fill:none;stroke:#000000;stroke-width:0.3985;stroke-linecap:butt;stroke-linejoin:miter;stroke-miterlimit:10;stroke-dasharray:none;stroke-opacity:1"
               d="m 9.34224,13.07611 9.66243,-28.98707" /></g></g><g
           id="g412"><g
             id="g414"><path
               id="path416"
               style="fill:none;stroke:#000000;stroke-width:0.3985;stroke-linecap:butt;stroke-linejoin:miter;stroke-miterlimit:10;stroke-dasharray:none;stroke-opacity:1"
               d="M 14.13344,18.75864 55.31615,12.42255" /></g></g><g
           id="g418"><g
             id="g420"><path
               id="path422"
               style="fill:none;stroke:#000000;stroke-width:0.3985;stroke-linecap:butt;stroke-linejoin:miter;stroke-miterlimit:10;stroke-dasharray:none;stroke-opacity:1"
               d="M 13.65634,17.05556 47.28911,2.78722" /></g></g><g
           id="g424"><g
             id="g426"><path
               id="path428"
               style="fill:none;stroke:#000000;stroke-width:0.3985;stroke-linecap:butt;stroke-linejoin:miter;stroke-miterlimit:10;stroke-dasharray:none;stroke-opacity:1"
               d="M 58.15446,5.72777 58.0873,5.63808" /></g></g><g
           id="g430"><g
             id="g432"><path
               id="path434"
               style="fill:none;stroke:#000000;stroke-width:0.3985;stroke-linecap:butt;stroke-linejoin:miter;stroke-miterlimit:10;stroke-dasharray:none;stroke-opacity:1"
               d="M 27.12497,-18.59773 47.99388,-4.0802" /></g></g><g
           id="g436"><g
             id="g438"><path
               id="path440"
               style="fill:none;stroke:#000000;stroke-width:0.3985;stroke-linecap:butt;stroke-linejoin:miter;stroke-miterlimit:10;stroke-dasharray:none;stroke-opacity:1"
               d="M 58.15446,5.72777 58.0873,5.63808" /></g></g><g
           id="g442"><g
             id="g444"><path
               id="path446"
               style="fill:none;stroke:#000000;stroke-width:0.3985;stroke-linecap:butt;stroke-linejoin:miter;stroke-miterlimit:10;stroke-dasharray:none;stroke-opacity:1"
               d="M 46.8853,-1.46793 35.32271,-3.90219" /></g></g><g
           id="g448"><g
             id="g450"><path
               id="path452"
               style="fill:none;stroke:#000000;stroke-width:0.3985;stroke-linecap:butt;stroke-linejoin:miter;stroke-miterlimit:10;stroke-dasharray:none;stroke-opacity:1"
               d="m 41.45975,-17.2937 -7.80062,6.24025" /></g></g><g
           id="g454"><g
             id="g456"><path
               id="path458"
               style="fill:none;stroke:#000000;stroke-width:0.3985;stroke-linecap:butt;stroke-linejoin:miter;stroke-miterlimit:10;stroke-dasharray:none;stroke-opacity:1"
               d="M -0.07846,-18.6129 14.2598,-21.3442" /></g></g><g
           id="g460"><g
             id="g462"><path
               id="path464"
               style="fill:none;stroke:#000000;stroke-width:0.3985;stroke-linecap:butt;stroke-linejoin:miter;stroke-miterlimit:10;stroke-dasharray:none;stroke-opacity:1"
               d="M -0.31232,-14.38673 18.7376,-8.29062" /></g></g></g></g></g></svg>